<svg xmlns="http://www.w3.org/2000/svg" xmlns:xlink="http://www.w3.org/1999/xlink"
    xmlns:serif="http://www.serif.com/" width="100%" height="100%" viewBox="0 0 8334 8334"
    xml:space="preserve"
    style="fill-rule:evenodd;clip-rule:evenodd;stroke-linejoin:round;stroke-miterlimit:2;">
    <path
        d="M6330.22,802.076c1856.97,1194.1 2395.14,3671.17 1201.04,5528.14c-1194.1,1856.97 -3671.17,2395.14 -5528.14,1201.04c-1856.97,-1194.1 -2395.14,-3671.17 -1201.04,-5528.14c1194.1,-1856.97 3671.17,-2395.14 5528.14,-1201.04Zm-554.473,5364.68c215.832,-0.026 391.013,-175.223 391.013,-391.013l0,-2205.43c0,-304.085 -378.611,-990.19 -1121.04,-1103.72c-927.848,-141.885 -1712.42,266.678 -1712.42,266.678l0,-566.692l-775.704,0c-215.815,0.009 -391.014,175.213 -391.014,391.014l0,3218.15c0,215.806 175.207,391.013 391.014,391.013l1075.72,0l-0,-1733.41c-0,-294.368 238.989,-533.357 533.357,-533.357c294.367,0 533.357,238.989 533.357,533.357l-0,1733.41l1075.72,0Z"
        style="fill:#008ee6;">
    </path>
</svg>